<?xml version="1.0" encoding="utf-8"?>
<!-- Generator: Adobe Illustrator 24.1.2, SVG Export Plug-In . SVG Version: 6.00 Build 0)  -->
<svg version="1.1" id="Layer_1" xmlns="http://www.w3.org/2000/svg" xmlns:xlink="http://www.w3.org/1999/xlink" x="0px" y="0px"
	 viewBox="0 0 228.54 205.87" style="enable-background:new 0 0 228.54 205.87;" xml:space="preserve">
<style type="text/css">
	.st0{fill:url(#SVGID_1_);}
</style>
<linearGradient id="SVGID_1_" gradientUnits="userSpaceOnUse" x1="114.2691" y1="23.481" x2="114.2691" y2="171.775">
	<stop  offset="0" style="stop-color:#1DBACD"/>
	<stop  offset="1" style="stop-color:#7B86AA"/>
</linearGradient>
<path class="st0" d="M165.06,63.8c-1.35-1.62-3.34-2.55-5.45-2.55H78.86c3.07-2.77,5.95-4.71,7.22-5.51
	c1.18-0.75,1.94-2.03,2.02-3.42c0.08-1.4-0.52-2.76-1.61-3.64c-6.06-4.92-13.66-13.46-15.84-15.96c-0.89-1.02-2.25-1.58-3.57-1.5
	c-1.3,0.08-2.46,0.73-3.19,1.79c-4.82,7-15.75,15.72-15.86,15.81l-0.3,0.27c-1.7,1.7-1.7,4.46,0,6.16l0.33,0.33l0.4,0.23
	c2.6,1.5,8.89,5.83,12.65,10.84L42.66,88.48c-2.28,2.7-2.21,6.71,0.15,9.33l67.12,74.51c1.35,1.49,3.27,2.35,5.28,2.35
	c0.01,0,0.03,0,0.04,0c2.03-0.01,3.95-0.89,5.29-2.41l65.24-74.23c2.32-2.65,2.38-6.53,0.12-9.23L165.06,63.8z M94.2,96.64h41.47
	l-20.28,60.89c-5.65-15.69-16.82-47.29-21.5-60.54L94.2,96.64z M100.56,89.64l15.27-16.8l15.42,16.8H100.56z M139.15,87.9
	l-18.02-19.63l35.4,0.01C153.7,71.39,148.59,77.14,139.15,87.9z M92.65,87.93L74.8,68.25l35.72,0.01L92.65,87.93z M65.31,72.55
	c0.46,0.23,0.98,0.37,1.52,0.4c0.09,0.01,0.18,0.01,0.27,0.01c0.71,0,1.42-0.19,2.05-0.52l15.6,17.19h-33.9L65.31,72.55z
	 M86.34,96.64c4,11.34,16.98,48.08,22.89,64.46L51.17,96.64H86.34z M143.04,96.64h34.63l-55.74,63.39L143.04,96.64z M146.94,89.64
	c5.94-6.75,12.64-14.32,15.76-17.74l14.78,17.74H146.94z M55.29,51.87c3.21-2.74,8.41-7.44,12.25-12.12
	c2.85,3.16,7.46,8.1,11.87,12.06c-2.93,2.12-6.84,5.34-10.29,9.44h-0.16c-0.95,0-1.88,0.2-2.73,0.56
	C62.81,57.48,58.32,53.97,55.29,51.87z"/>
</svg>
