<?xml version="1.0" encoding="utf-8"?>
<!-- Generator: Adobe Illustrator 24.1.2, SVG Export Plug-In . SVG Version: 6.00 Build 0)  -->
<svg version="1.1" id="Layer_1" xmlns="http://www.w3.org/2000/svg" xmlns:xlink="http://www.w3.org/1999/xlink" x="0px" y="0px"
	 viewBox="0 0 228.54 205.87" style="enable-background:new 0 0 228.54 205.87;" xml:space="preserve">
<style type="text/css">
	.st0{fill:url(#SVGID_1_);}
	.st1{fill:url(#SVGID_2_);}
	.st2{fill:url(#SVGID_3_);}
	.st3{fill:url(#SVGID_4_);}
	.st4{fill:url(#SVGID_5_);}
	.st5{fill:url(#SVGID_6_);}
</style>
<g>
	<linearGradient id="SVGID_1_" gradientUnits="userSpaceOnUse" x1="116.0645" y1="49.7399" x2="104.7356" y2="186.4412">
		<stop  offset="0" style="stop-color:#1DBACD"/>
		<stop  offset="1" style="stop-color:#7B86AA"/>
	</linearGradient>
	<path class="st0" d="M142.09,108.56c6.74-7.26,10.45-16.71,10.45-26.62c0-21.58-17.56-39.14-39.14-39.14S74.26,60.36,74.26,81.94
		c0,9.53,3.46,18.71,9.75,25.86c7.43,8.44,18.14,13.28,29.38,13.28C124.24,121.08,134.7,116.52,142.09,108.56z M82.26,81.94
		c0-17.17,13.97-31.14,31.14-31.14s31.14,13.97,31.14,31.14c0,6.22-1.85,12.22-5.26,17.31c-2.96-4.61-7.02-7.92-12.15-9.92
		c3.53-3.52,5.71-8.38,5.71-13.75c0-10.72-8.72-19.44-19.44-19.44s-19.44,8.72-19.44,19.44c0,5.61,2.4,10.65,6.21,14.2
		c-4.89,2.16-9.11,5.54-12.35,9.91C84.22,94.51,82.26,88.33,82.26,81.94z M113.4,87.02c-6.31,0-11.44-5.13-11.44-11.44
		s5.13-11.44,11.44-11.44s11.44,5.13,11.44,11.44S119.7,87.02,113.4,87.02z M93.35,105.76c4.38-6.85,11.61-10.74,20.23-10.74
		c10.18,0,16.48,3.28,20.09,10.54c-5.61,4.81-12.83,7.52-20.27,7.52C106.02,113.08,98.93,110.45,93.35,105.76z"/>
	<linearGradient id="SVGID_2_" gradientUnits="userSpaceOnUse" x1="117.4674" y1="49.8561" x2="106.1385" y2="186.5574">
		<stop  offset="0" style="stop-color:#1DBACD"/>
		<stop  offset="1" style="stop-color:#7B86AA"/>
	</linearGradient>
	<path class="st1" d="M141.16,173.49H62.84c-2.46,0-4.47-2-4.47-4.47V36.85c0-2.46,2-4.47,4.47-4.47h105.67c2.46,0,4.47,2,4.47,4.47
		v69.73c0,2.21,1.79,4,4,4s4-1.79,4-4V36.85c0-6.88-5.59-12.47-12.47-12.47H62.84c-6.88,0-12.47,5.59-12.47,12.47v132.17
		c0,6.88,5.59,12.47,12.47,12.47h78.32c2.21,0,4-1.79,4-4S143.36,173.49,141.16,173.49z"/>
	<linearGradient id="SVGID_3_" gradientUnits="userSpaceOnUse" x1="180.941" y1="55.1164" x2="169.6122" y2="191.8177">
		<stop  offset="0" style="stop-color:#1DBACD"/>
		<stop  offset="1" style="stop-color:#7B86AA"/>
	</linearGradient>
	<path class="st2" d="M173.15,118.43c-16.94,0-30.71,13.78-30.71,30.71s13.78,30.71,30.71,30.71c16.94,0,30.71-13.78,30.71-30.71
		S190.08,118.43,173.15,118.43z M173.15,171.86c-12.52,0-22.71-10.19-22.71-22.71s10.19-22.71,22.71-22.71
		c12.53,0,22.71,10.19,22.71,22.71S185.67,171.86,173.15,171.86z"/>
	<linearGradient id="SVGID_4_" gradientUnits="userSpaceOnUse" x1="180.941" y1="55.1164" x2="169.6122" y2="191.8177">
		<stop  offset="0" style="stop-color:#1DBACD"/>
		<stop  offset="1" style="stop-color:#7B86AA"/>
	</linearGradient>
	<path class="st3" d="M184.95,145.15h-7.81v-7.69c0-2.21-1.79-4-4-4s-4,1.79-4,4v7.69h-7.8c-2.21,0-4,1.79-4,4s1.79,4,4,4h7.8v7.69
		c0,2.21,1.79,4,4,4s4-1.79,4-4v-7.69h7.81c2.21,0,4-1.79,4-4S187.16,145.15,184.95,145.15z"/>
	<linearGradient id="SVGID_5_" gradientUnits="userSpaceOnUse" x1="106.6145" y1="48.9567" x2="95.2856" y2="185.658">
		<stop  offset="0" style="stop-color:#1DBACD"/>
		<stop  offset="1" style="stop-color:#7B86AA"/>
	</linearGradient>
	<path class="st4" d="M124.69,131.7h-50.6c-2.46,0-4.45,1.99-4.45,4.45s1.99,4.45,4.45,4.45h50.6c2.46,0,4.45-1.99,4.45-4.45
		S127.15,131.7,124.69,131.7z"/>
	<linearGradient id="SVGID_6_" gradientUnits="userSpaceOnUse" x1="107.9891" y1="49.0706" x2="96.6603" y2="185.772">
		<stop  offset="0" style="stop-color:#1DBACD"/>
		<stop  offset="1" style="stop-color:#7B86AA"/>
	</linearGradient>
	<path class="st5" d="M124.46,151.13h-50.6c-2.46,0-4.45,1.99-4.45,4.45s1.99,4.45,4.45,4.45h50.6c2.46,0,4.45-1.99,4.45-4.45
		S126.92,151.13,124.46,151.13z"/>
</g>
</svg>
