<?xml version="1.0" encoding="utf-8"?>
<!-- Generator: Adobe Illustrator 24.1.2, SVG Export Plug-In . SVG Version: 6.00 Build 0)  -->
<svg version="1.1" id="Layer_1" xmlns="http://www.w3.org/2000/svg" xmlns:xlink="http://www.w3.org/1999/xlink" x="0px" y="0px"
	 viewBox="0 0 792 196.55" style="enable-background:new 0 0 792 196.55;" xml:space="preserve">
<style type="text/css">
	.st0{fill:#FFFFFF;}
</style>
<g>
	<path class="st0" d="M133.49,105.02c0.89-0.38,1.66-0.91,2.3-1.59c0.64-0.68,1.15-1.47,1.52-2.39c0.37-0.91,0.56-1.9,0.56-2.96
		c0-1.04-0.17-2-0.52-2.88c-0.35-0.88-0.85-1.64-1.49-2.28c-0.64-0.64-1.41-1.14-2.28-1.49c-0.88-0.35-1.85-0.53-2.91-0.53h-14.9
		v14.69h14.83C131.63,105.6,132.6,105.41,133.49,105.02z"/>
	<path class="st0" d="M107.24,57.39c-28.06,0-50.81,22.75-50.81,50.81c0,28.06,22.75,50.81,50.81,50.81
		c28.06,0,50.81-22.75,50.81-50.81C158.05,80.14,135.3,57.39,107.24,57.39z M103.59,126.17c-0.98,1.93-2.32,3.58-4.03,4.94
		c-1.7,1.37-3.71,2.42-6.01,3.16c-2.3,0.74-4.77,1.12-7.41,1.12c-1.76,0-3.5-0.2-5.23-0.59c-1.73-0.39-3.38-0.97-4.98-1.73
		c-1.59-0.76-3.08-1.68-4.45-2.76c-1.38-1.08-2.61-2.32-3.69-3.72c-0.29-0.36-0.43-0.72-0.42-1.08c0.01-0.36,0.21-0.7,0.59-1.02
		l2.67-2.23c0.38-0.32,0.76-0.46,1.12-0.42c0.36,0.03,0.69,0.23,0.98,0.59l0.44,0.44c0.95,1.06,2.03,1.98,3.23,2.76
		c1.21,0.78,2.41,1.42,3.62,1.93c1.21,0.51,2.36,0.89,3.47,1.13c1.11,0.25,2.04,0.37,2.81,0.37c1.38,0,2.79-0.18,4.23-0.54
		c1.44-0.36,2.76-0.91,3.96-1.66c1.2-0.74,2.18-1.69,2.95-2.83c0.77-1.14,1.15-2.48,1.15-4.01c0-1.29-0.38-2.38-1.13-3.27
		c-0.76-0.89-1.78-1.67-3.06-2.34c-1.29-0.67-2.79-1.26-4.52-1.79c-1.73-0.53-3.57-1.09-5.53-1.68c-2.71-0.79-5.03-1.62-6.97-2.49
		c-1.94-0.87-3.54-1.83-4.79-2.88c-1.25-1.05-2.17-2.22-2.76-3.52c-0.59-1.3-0.88-2.76-0.88-4.38c0-2.05,0.41-3.93,1.23-5.64
		c0.82-1.7,1.99-3.18,3.5-4.42c1.51-1.24,3.33-2.21,5.47-2.89c2.13-0.69,4.52-1.03,7.16-1.03c1.42,0,2.9,0.18,4.43,0.54
		c1.53,0.36,3.03,0.86,4.49,1.51c1.46,0.64,2.82,1.41,4.1,2.3c1.27,0.89,2.38,1.88,3.3,2.96c0.32,0.34,0.48,0.69,0.49,1.07
		c0.01,0.37-0.16,0.73-0.52,1.07l-2.4,2.3c-0.36,0.34-0.73,0.5-1.1,0.47c-0.37-0.02-0.72-0.19-1.03-0.51
		c-0.32-0.2-0.84-0.6-1.56-1.19c-0.72-0.59-1.61-1.18-2.66-1.79c-1.05-0.61-2.23-1.16-3.54-1.64c-1.31-0.49-2.72-0.73-4.23-0.73
		c-1.78,0-3.32,0.21-4.6,0.64c-1.29,0.43-2.35,1-3.18,1.71c-0.84,0.71-1.45,1.51-1.85,2.4c-0.39,0.89-0.59,1.79-0.59,2.69
		c0,1.26,0.42,2.32,1.25,3.18c0.84,0.86,1.94,1.6,3.32,2.23c1.38,0.63,2.94,1.2,4.69,1.71c1.75,0.51,3.53,1.04,5.35,1.61
		c1.82,0.56,3.6,1.2,5.35,1.9c1.75,0.7,3.31,1.57,4.69,2.61c1.38,1.04,2.48,2.28,3.32,3.72c0.84,1.44,1.25,3.19,1.25,5.25
		C105.07,122.09,104.58,124.24,103.59,126.17z M143.05,130.28c-1.26,1.35-2.76,2.43-4.49,3.23c-1.72,0.8-3.59,1.2-5.6,1.2h-22.1
		c-0.45,0-0.82-0.12-1.12-0.37c-0.29-0.25-0.44-0.62-0.44-1.12V86.07c0-1.08,0.52-1.62,1.56-1.62h19.87c1.96,0,3.78,0.35,5.45,1.05
		c1.67,0.7,3.13,1.66,4.37,2.88c1.24,1.22,2.21,2.66,2.91,4.32c0.7,1.66,1.05,3.46,1.05,5.4c0,1.94-0.38,3.77-1.14,5.48
		c-0.76,1.72-1.81,3.18-3.16,4.4c1.04,0.61,1.98,1.34,2.83,2.2c0.85,0.86,1.58,1.8,2.18,2.83c0.61,1.03,1.08,2.13,1.41,3.3
		c0.33,1.17,0.49,2.39,0.49,3.66c0,1.96-0.36,3.84-1.08,5.62C145.31,127.36,144.32,128.92,143.05,130.28z"/>
	<path class="st0" d="M138.28,114.44c-0.68-0.72-1.48-1.3-2.4-1.73c-0.93-0.43-1.92-0.64-2.98-0.64h-17.13v16.18h17.13
		c1.04,0,2.02-0.23,2.94-0.68c0.93-0.45,1.73-1.05,2.42-1.81c0.69-0.76,1.23-1.64,1.62-2.64c0.39-1,0.59-2.06,0.59-3.17
		c0-1.06-0.2-2.07-0.59-3.01C139.49,115.99,138.96,115.16,138.28,114.44z"/>
	<g>
		<path class="st0" d="M107.24,168.62c-33.32,0-60.42-27.11-60.42-60.42s27.11-60.42,60.42-60.42s60.42,27.11,60.42,60.42
			S140.56,168.62,107.24,168.62z M107.24,52.26c-30.85,0-55.94,25.09-55.94,55.94s25.09,55.94,55.94,55.94
			c30.84,0,55.94-25.09,55.94-55.94S138.09,52.26,107.24,52.26z"/>
	</g>
</g>
<g>
	<g>
		<path class="st0" d="M231.13,89.37c-0.37-0.24-0.98-0.7-1.83-1.39c-0.85-0.69-1.89-1.39-3.12-2.11c-1.23-0.72-2.62-1.36-4.15-1.93
			c-1.54-0.57-3.19-0.85-4.97-0.85c-2.09,0-3.89,0.25-5.4,0.75c-1.51,0.5-2.76,1.17-3.74,2.01c-0.98,0.84-1.7,1.78-2.17,2.82
			c-0.46,1.05-0.7,2.1-0.7,3.16c0,1.48,0.49,2.73,1.47,3.74c0.98,1.01,2.28,1.88,3.89,2.62c1.62,0.74,3.45,1.41,5.5,2.01
			c2.05,0.6,4.15,1.23,6.28,1.89c2.13,0.66,4.22,1.4,6.28,2.22c2.05,0.82,3.89,1.84,5.5,3.06c1.62,1.22,2.91,2.68,3.89,4.37
			c0.98,1.7,1.47,3.75,1.47,6.16c0,2.78-0.58,5.3-1.73,7.57c-1.15,2.26-2.73,4.2-4.73,5.8c-2,1.6-4.35,2.84-7.05,3.71
			c-2.7,0.87-5.6,1.31-8.7,1.31c-2.07,0-4.11-0.23-6.14-0.7c-2.03-0.46-3.97-1.14-5.84-2.03c-1.87-0.89-3.61-1.97-5.22-3.24
			c-1.62-1.27-3.06-2.73-4.33-4.37c-0.34-0.42-0.51-0.85-0.5-1.27c0.01-0.42,0.24-0.82,0.7-1.19l3.14-2.62
			c0.45-0.37,0.89-0.54,1.31-0.5c0.42,0.04,0.81,0.27,1.15,0.69l0.52,0.52c1.11,1.25,2.38,2.32,3.79,3.24
			c1.42,0.91,2.83,1.67,4.25,2.26c1.42,0.6,2.77,1.04,4.07,1.33c1.3,0.29,2.4,0.44,3.3,0.44c1.62,0,3.27-0.21,4.97-0.64
			c1.69-0.42,3.24-1.07,4.65-1.95c1.4-0.87,2.56-1.98,3.46-3.32c0.9-1.34,1.35-2.91,1.35-4.71c0-1.51-0.44-2.79-1.33-3.83
			c-0.89-1.05-2.09-1.96-3.6-2.74c-1.51-0.78-3.28-1.48-5.3-2.11c-2.03-0.62-4.19-1.28-6.5-1.97c-3.18-0.93-5.91-1.9-8.18-2.92
			c-2.28-1.02-4.15-2.15-5.62-3.38c-1.47-1.23-2.55-2.61-3.24-4.13c-0.69-1.52-1.03-3.24-1.03-5.15c0-2.41,0.48-4.62,1.45-6.62
			c0.97-2,2.34-3.73,4.11-5.18c1.77-1.46,3.91-2.59,6.42-3.4c2.5-0.81,5.3-1.21,8.4-1.21c1.67,0,3.4,0.21,5.21,0.64
			c1.8,0.42,3.56,1.01,5.26,1.77c1.71,0.75,3.31,1.66,4.81,2.7c1.5,1.05,2.79,2.2,3.87,3.48c0.37,0.4,0.56,0.81,0.58,1.25
			c0.01,0.44-0.19,0.85-0.62,1.25l-2.82,2.7c-0.42,0.4-0.85,0.58-1.29,0.56C231.9,89.94,231.5,89.75,231.13,89.37z"/>
		<path class="st0" d="M287.71,76.5c0.48,0,0.91,0.15,1.29,0.44c0.38,0.29,0.6,0.73,0.66,1.31v4.01c0,0.53-0.16,0.99-0.48,1.37
			c-0.32,0.38-0.81,0.58-1.47,0.58h-16.53v49.47c0,0.48-0.16,0.9-0.48,1.27c-0.32,0.37-0.77,0.56-1.35,0.56h-4.01
			c-0.48,0-0.9-0.17-1.27-0.52c-0.37-0.34-0.56-0.78-0.56-1.31V84.21H246.9c-0.53,0-0.97-0.16-1.31-0.48
			c-0.34-0.32-0.52-0.81-0.52-1.47v-4.01c0-0.53,0.17-0.95,0.52-1.27c0.34-0.32,0.78-0.48,1.31-0.48H287.71z"/>
		<path class="st0" d="M296.41,134.04c-0.19,0.45-0.45,0.81-0.79,1.07c-0.34,0.26-0.78,0.4-1.31,0.4h-4.21
			c-1.22,0-1.83-0.46-1.83-1.39c0-0.18,0.01-0.34,0.02-0.46c0.01-0.12,0.03-0.23,0.06-0.34c0.03-0.1,0.05-0.2,0.08-0.28l22.93-55.07
			c0.05-0.13,0.12-0.28,0.2-0.46c0.08-0.17,0.18-0.33,0.32-0.48c0.13-0.14,0.32-0.27,0.58-0.38c0.25-0.11,0.59-0.16,1.01-0.16h2.62
			c0.4,0,0.72,0.05,0.97,0.16c0.25,0.11,0.44,0.23,0.58,0.38c0.13,0.15,0.24,0.3,0.32,0.48c0.08,0.17,0.15,0.33,0.2,0.46
			l22.73,55.07c0.03,0.13,0.05,0.27,0.08,0.4c0.03,0.13,0.05,0.26,0.08,0.38s0.04,0.22,0.04,0.3c0,0.93-0.61,1.39-1.83,1.39h-4.21
			c-0.53,0-0.97-0.13-1.31-0.4c-0.34-0.26-0.61-0.62-0.79-1.07l-4.37-10.93h-27.89c-0.93,2.36-1.77,4.49-2.54,6.4
			C297.35,131.41,296.78,132.92,296.41,134.04z M303.84,115.4h21.65l-10.73-27.18L303.84,115.4z"/>
		<path class="st0" d="M352.47,78.33c0-1.22,0.58-1.83,1.75-1.83h37.51c1.22,0,1.83,0.64,1.83,1.91v3.93c0,0.5-0.17,0.94-0.5,1.31
			c-0.33,0.37-0.77,0.56-1.33,0.56h-31.55v19.51c4.21,0,8.36,0.01,12.44,0.02c4.08,0.01,8.24,0.02,12.48,0.02
			c0.48,0,0.89,0.15,1.23,0.44c0.34,0.29,0.52,0.77,0.52,1.43v4.01c0,0.48-0.15,0.9-0.46,1.27c-0.3,0.37-0.73,0.56-1.29,0.56h-24.91
			v22.37c0,1.11-0.62,1.67-1.87,1.67h-4.09c-1.17,0-1.75-0.56-1.75-1.67V78.33z"/>
		<path class="st0" d="M406.27,78.33c0-1.22,0.58-1.83,1.75-1.83h37.51c1.22,0,1.83,0.64,1.83,1.91v3.93c0,0.5-0.17,0.94-0.5,1.31
			c-0.33,0.37-0.77,0.56-1.33,0.56h-31.55v19.51c4.21,0,8.36,0.01,12.44,0.02c4.08,0.01,8.24,0.02,12.48,0.02
			c0.48,0,0.89,0.15,1.23,0.44c0.34,0.29,0.52,0.77,0.52,1.43v4.01c0,0.48-0.15,0.9-0.46,1.27c-0.3,0.37-0.73,0.56-1.29,0.56h-24.91
			v22.37c0,1.11-0.62,1.67-1.87,1.67h-4.09c-1.17,0-1.75-0.56-1.75-1.67V78.33z"/>
	</g>
	<g>
		<path class="st0" d="M477.75,78.33c0-0.56,0.15-1,0.46-1.33c0.3-0.33,0.73-0.5,1.29-0.5h26.38c2.33,0,4.53,0.44,6.6,1.33
			c2.07,0.89,3.87,2.11,5.42,3.66c1.55,1.55,2.77,3.36,3.68,5.44c0.9,2.08,1.35,4.31,1.35,6.7c0,1.99-0.31,3.83-0.93,5.54
			c-0.62,1.71-1.5,3.24-2.64,4.59c1.91,1.75,3.42,3.83,4.53,6.24c1.11,2.41,1.67,4.97,1.67,7.67c0,2.41-0.46,4.69-1.39,6.85
			c-0.93,2.16-2.18,4.05-3.75,5.68c-1.58,1.63-3.42,2.92-5.52,3.87c-2.11,0.95-4.32,1.43-6.66,1.43H479.5
			c-0.53,0-0.95-0.14-1.27-0.42c-0.32-0.28-0.48-0.71-0.48-1.29V78.33z M507.67,93.98c0-0.79-0.15-1.54-0.44-2.22
			c-0.29-0.69-0.7-1.3-1.24-1.83c-0.53-0.53-1.17-0.95-1.91-1.25c-0.74-0.3-1.55-0.46-2.43-0.46h-8.53v11.52h8.41
			c0.9,0,1.73-0.14,2.49-0.42c0.76-0.28,1.4-0.68,1.93-1.19c0.53-0.52,0.95-1.13,1.26-1.83C507.51,95.61,507.67,94.83,507.67,93.98z
			 M509.77,117.07c0-0.79-0.15-1.59-0.46-2.38c-0.31-0.79-0.73-1.5-1.27-2.12c-0.54-0.62-1.19-1.13-1.95-1.53
			c-0.76-0.4-1.57-0.6-2.45-0.6h-10.52v13.27h10.52c0.88,0,1.68-0.18,2.43-0.56c0.74-0.37,1.39-0.87,1.95-1.49
			c0.56-0.62,0.99-1.33,1.29-2.13C509.62,118.74,509.77,117.92,509.77,117.07z"/>
		<path class="st0" d="M549.78,111.97c0,1.96,0.27,3.63,0.82,4.99c0.54,1.37,1.26,2.48,2.15,3.34c0.89,0.86,1.92,1.49,3.11,1.89
			c1.18,0.4,2.41,0.6,3.68,0.6c1.33,0,2.58-0.23,3.76-0.7c1.18-0.46,2.22-1.15,3.11-2.07c0.89-0.91,1.59-2.05,2.11-3.4
			c0.52-1.35,0.78-2.9,0.78-4.65V78.25c0-0.48,0.16-0.89,0.5-1.23c0.33-0.34,0.77-0.52,1.33-0.52h11.6c0.61,0,1.09,0.18,1.43,0.54
			c0.34,0.36,0.52,0.76,0.52,1.21v33.49c0,4.64-0.68,8.53-2.05,11.68c-1.36,3.15-3.2,5.69-5.5,7.61c-2.3,1.92-4.97,3.3-8.01,4.13
			c-3.03,0.83-6.22,1.25-9.56,1.25c-3.34,0-6.53-0.43-9.58-1.29c-3.05-0.86-5.72-2.26-8.03-4.21c-2.3-1.95-4.14-4.49-5.5-7.63
			c-1.36-3.14-2.05-6.99-2.05-11.54V78.25c0-0.45,0.15-0.85,0.46-1.21c0.3-0.36,0.68-0.54,1.13-0.54h11.89c0.4,0,0.81,0.17,1.25,0.5
			c0.44,0.33,0.65,0.75,0.65,1.25V111.97z"/>
		<path class="st0" d="M598.69,78.25c0.05-0.48,0.24-0.89,0.56-1.23c0.32-0.34,0.77-0.52,1.35-0.52h13.75c0.98,0,1.61,0.5,1.91,1.51
			l10.81,36.08l10.89-36.08c0.37-1.01,1.05-1.51,2.03-1.51h13.59c0.48,0,0.91,0.17,1.29,0.5c0.38,0.33,0.6,0.75,0.66,1.25
			c0.93,9.32,1.87,18.58,2.84,27.75c0.97,9.18,1.91,18.43,2.84,27.75v0.2c0,1.03-0.58,1.55-1.75,1.55H648.2
			c-1.22,0-1.85-0.58-1.91-1.75l-3.46-30.71l-8.94,30.91c-0.05,0.26-0.25,0.58-0.58,0.95c-0.33,0.37-0.66,0.55-0.97,0.55H621.9
			c-0.32,0-0.66-0.18-1.01-0.54c-0.36-0.36-0.55-0.68-0.58-0.97l-8.94-30.83l-3.46,30.63c-0.05,1.17-0.7,1.75-1.95,1.75h-11.24
			c-1.14,0-1.71-0.58-1.71-1.75L598.69,78.25z"/>
		<path class="st0" d="M670.17,78.33c0-0.56,0.14-1,0.44-1.33c0.29-0.33,0.73-0.5,1.31-0.5h25.39c1.83,0,3.55,0.25,5.17,0.76
			c1.62,0.5,3.1,1.2,4.45,2.09c1.35,0.89,2.57,1.95,3.66,3.18c1.09,1.23,2,2.56,2.76,3.99c0.75,1.43,1.33,2.93,1.73,4.51
			c0.4,1.58,0.6,3.17,0.6,4.79c0,2.38-0.43,4.71-1.29,6.99c-0.86,2.28-2.09,4.31-3.67,6.08c-1.59,1.78-3.5,3.21-5.72,4.31
			c-2.22,1.1-4.69,1.66-7.39,1.69h-12.04v18.91c0,1.14-0.61,1.71-1.83,1.71h-11.8c-0.53,0-0.95-0.14-1.27-0.42
			c-0.32-0.28-0.48-0.71-0.48-1.29V78.33z M700.09,95.73c0-0.79-0.14-1.59-0.42-2.38c-0.28-0.79-0.68-1.5-1.21-2.12
			c-0.53-0.62-1.17-1.13-1.93-1.53c-0.75-0.4-1.61-0.6-2.56-0.6h-8.42v13.27h8.42c0.95,0,1.81-0.19,2.58-0.58
			c0.77-0.38,1.41-0.88,1.93-1.49c0.52-0.61,0.92-1.31,1.19-2.11C699.95,97.4,700.09,96.58,700.09,95.73z"/>
	</g>
</g>
</svg>
