<?xml version="1.0" encoding="utf-8"?>
<!-- Generator: Adobe Illustrator 24.1.2, SVG Export Plug-In . SVG Version: 6.00 Build 0)  -->
<svg version="1.1" id="Layer_1" xmlns="http://www.w3.org/2000/svg" xmlns:xlink="http://www.w3.org/1999/xlink" x="0px" y="0px"
	 viewBox="0 0 220.54 206.49" style="enable-background:new 0 0 220.54 206.49;" xml:space="preserve">
<style type="text/css">
	.st0{fill:url(#SVGID_1_);}
	.st1{fill:url(#SVGID_2_);}
	.st2{fill:url(#SVGID_3_);}
	.st3{fill:url(#SVGID_4_);}
	.st4{fill:url(#SVGID_5_);}
	.st5{fill:url(#SVGID_6_);}
</style>
<g>
	<linearGradient id="SVGID_1_" gradientUnits="userSpaceOnUse" x1="104.219" y1="50.0468" x2="92.8901" y2="186.7481">
		<stop  offset="0" style="stop-color:#1DBACD"/>
		<stop  offset="1" style="stop-color:#7B86AA"/>
	</linearGradient>
	<path class="st0" d="M130.24,108.87c6.74-7.26,10.45-16.71,10.45-26.62c0-21.58-17.56-39.14-39.14-39.14S62.41,60.67,62.41,82.25
		c0,9.53,3.46,18.71,9.75,25.86c7.43,8.44,18.14,13.28,29.38,13.28C112.4,121.39,122.86,116.82,130.24,108.87z M70.41,82.25
		c0-17.17,13.97-31.14,31.14-31.14s31.14,13.97,31.14,31.14c0,6.22-1.85,12.22-5.26,17.31c-2.96-4.61-7.02-7.92-12.15-9.92
		c3.53-3.52,5.71-8.38,5.71-13.75c0-10.72-8.72-19.44-19.44-19.44s-19.44,8.72-19.44,19.44c0,5.61,2.4,10.65,6.21,14.2
		c-4.89,2.16-9.11,5.54-12.35,9.91C72.38,94.82,70.41,88.63,70.41,82.25z M101.55,87.33c-6.31,0-11.44-5.13-11.44-11.44
		s5.13-11.44,11.44-11.44s11.44,5.13,11.44,11.44S107.86,87.33,101.55,87.33z M81.5,106.06c4.38-6.85,11.61-10.74,20.23-10.74
		c10.18,0,16.48,3.28,20.09,10.54c-5.61,4.81-12.83,7.52-20.27,7.52C94.17,113.39,87.08,110.76,81.5,106.06z"/>
	<linearGradient id="SVGID_2_" gradientUnits="userSpaceOnUse" x1="105.6219" y1="50.1631" x2="94.293" y2="186.8644">
		<stop  offset="0" style="stop-color:#1DBACD"/>
		<stop  offset="1" style="stop-color:#7B86AA"/>
	</linearGradient>
	<path class="st1" d="M129.31,173.8H50.99c-2.46,0-4.47-2-4.47-4.47V37.16c0-2.46,2-4.47,4.47-4.47h105.67c2.46,0,4.47,2,4.47,4.47
		v69.73c0,2.21,1.79,4,4,4s4-1.79,4-4V37.16c0-6.88-5.59-12.47-12.47-12.47H50.99c-6.88,0-12.47,5.59-12.47,12.47v132.17
		c0,6.88,5.59,12.47,12.47,12.47h78.32c2.21,0,4-1.79,4-4S131.52,173.8,129.31,173.8z"/>
	<linearGradient id="SVGID_3_" gradientUnits="userSpaceOnUse" x1="169.0955" y1="55.4233" x2="157.7667" y2="192.1246">
		<stop  offset="0" style="stop-color:#1DBACD"/>
		<stop  offset="1" style="stop-color:#7B86AA"/>
	</linearGradient>
	<path class="st2" d="M161.3,118.74c-16.94,0-30.71,13.78-30.71,30.71s13.78,30.71,30.71,30.71c16.94,0,30.71-13.78,30.71-30.71
		S178.24,118.74,161.3,118.74z M161.3,172.17c-12.52,0-22.71-10.19-22.71-22.71s10.19-22.71,22.71-22.71
		c12.53,0,22.71,10.19,22.71,22.71S173.83,172.17,161.3,172.17z"/>
	<linearGradient id="SVGID_4_" gradientUnits="userSpaceOnUse" x1="169.0955" y1="55.4233" x2="157.7667" y2="192.1246">
		<stop  offset="0" style="stop-color:#1DBACD"/>
		<stop  offset="1" style="stop-color:#7B86AA"/>
	</linearGradient>
	<path class="st3" d="M173.11,145.45h-7.81v-7.69c0-2.21-1.79-4-4-4s-4,1.79-4,4v7.69h-7.8c-2.21,0-4,1.79-4,4s1.79,4,4,4h7.8v7.69
		c0,2.21,1.79,4,4,4s4-1.79,4-4v-7.69h7.81c2.21,0,4-1.79,4-4S175.32,145.45,173.11,145.45z"/>
	<linearGradient id="SVGID_5_" gradientUnits="userSpaceOnUse" x1="94.769" y1="49.2637" x2="83.4401" y2="185.965">
		<stop  offset="0" style="stop-color:#1DBACD"/>
		<stop  offset="1" style="stop-color:#7B86AA"/>
	</linearGradient>
	<path class="st4" d="M112.84,132h-50.6c-2.46,0-4.45,1.99-4.45,4.45s1.99,4.45,4.45,4.45h50.6c2.46,0,4.45-1.99,4.45-4.45
		S115.3,132,112.84,132z"/>
	<linearGradient id="SVGID_6_" gradientUnits="userSpaceOnUse" x1="96.1436" y1="49.3776" x2="84.8148" y2="186.0789">
		<stop  offset="0" style="stop-color:#1DBACD"/>
		<stop  offset="1" style="stop-color:#7B86AA"/>
	</linearGradient>
	<path class="st5" d="M112.62,151.43h-50.6c-2.46,0-4.45,1.99-4.45,4.45s1.99,4.45,4.45,4.45h50.6c2.46,0,4.45-1.99,4.45-4.45
		S115.07,151.43,112.62,151.43z"/>
</g>
</svg>
